PathFileType	3	(X/Y/Z)	D:\minhoCalibration\240510\subject1_KPNP\preferred\preferred15.trc
DataRate	CameraRate	NumFrames	NumMarkers	Units	OrigDataRate	OrigDataStartFrame	OrigNumFrames
200.0	200.0	18	10	mm	200.0	478	228	
Frame#	Time	Left_Ankle_Outer1			Left_Ankle_Inner1			Left_Knee_Outer1			Left_Knee_Inner1			Left_Wrist1			Right_Wrist1			Right_Knee_Inner1			Right_Knee_Outer1			Right_Ankle_Inner1			Right_Ankle_Outer1			
		X1	Y1	Z1	X2	Y2	Z2	X3	Y3	Z3	X4	Y4	Z4	X5	Y5	Z5	X6	Y6	Z6	X7	Y7	Z7	X8	Y8	Z8	X9	Y9	Z9	X10	Y10	Z10	
478	2.38	-519.49451	149.11253	-529.28094	-556.08704	156.88266	-486.5571	-370.56854	569.97961	-429.38574	-467.24246	550.65704	-385.48575	-397.0321	999.47784	-643.69415	-629.54907	1191.4988	-428.55981	-320.87036	1000.9244	-130.35945	-388.11346	1081.5421	-100.95554	-341.27618	861.63531	295.68301	-311.48129	978.70172	338.28235
479	2.385	-519.74213	149.76872	-528.33875	-556.64264	157.18828	-485.54874	-370.85873	570.58435	-428.06549	-467.56927	551.16943	-384.49399	-394.58621	1001.1973	-640.54016	-633.54645	1188.5961	-427.97952	-327.81082	994.37335	-127.46419	-392.36514	1074.5497	-97.125099	-341.42429	847.04321	292.80035	-318.77139	963.95624	339.7211
480	2.39	-520.1109	150.29182	-527.61401	-557.08612	157.56621	-484.67361	-371.34445	570.97339	-427.10861	-468.40802	551.95593	-382.79111	-392.57486	1002.9827	-637.26337	-636.75616	1185.2402	-427.97369	-334.50195	987.37756	-125.41772	-397.7594	1067.6295	-93.331367	-341.47183	830.77026	289.80627	-326.08008	947.26611	340.70715
481	2.395	-520.40857	150.80432	-527.08002	-557.47168	157.8689	-484.22382	-371.73148	571.35303	-426.54172	-468.78699	552.57776	-382.02023	-390.52985	1005.1547	-634.04108	-640.02576	1182.1448	-427.97028	-340.983	980.60089	-124.03439	-403.80954	1060.6222	-90.021049	-343.28815	814.90625	287.01743	-332.98431	929.89154	342.43939
482	2.4	-520.76904	151.08279	-526.79785	-557.71259	158.17033	-483.87878	-372.32242	571.45178	-426.12918	-469.13062	552.4679	-382.43506	-388.29837	1007.3307	-631.36353	-643.06665	1178.8961	-428.11209	-347.09735	974.13293	-123.13659	-411.11292	1053.4697	-86.975128	-345.42905	798.67114	282.6105	-340.1694	911.72565	343.15579
483	2.405	-521.03717	151.2477	-526.7533	-558.00635	158.23465	-483.76721	-372.87207	571.56702	-425.8317	-470.28619	552.63312	-381.63144	-386.13998	1009.4043	-628.79016	-645.94293	1175.8958	-428.21054	-352.8219	968.25134	-122.55124	-418.89111	1046.0739	-84.561066	-348.34708	781.83417	277.65475	-347.46423	893.03729	342.98639
484	2.41	-521.29791	151.25514	-526.82874	-558.29346	158.21683	-483.9769	-373.39401	571.71741	-425.62503	-471.36325	552.93164	-381.67624	-384.03784	1011.3876	-626.36536	-648.71985	1172.8903	-428.37915	-357.5058	963.16223	-122.52766	-426.62766	1038.5557	-82.680748	-352.00253	765.64929	272.50949	-354.80688	873.9693	341.41263
485	2.415	-521.41101	151.16797	-527.20959	-558.44952	158.07567	-484.30286	-374.71469	571.27069	-425.33594	-472.16852	552.82269	-382.24991	-382.01514	1013.2805	-624.06451	-651.46002	1170.0364	-428.70694	-361.45593	958.87482	-122.77702	-434.10837	1030.8264	-81.265923	-356.56451	748.0824	266.36423	-362.58035	854.56122	338.62625
486	2.42	-521.47656	150.86771	-527.70532	-558.5968	157.76913	-484.914	-375.41608	571.12756	-425.33148	-472.62555	552.66956	-383.38797	-380.15604	1015.0383	-621.82239	-654.22388	1167.2799	-429.05344	-364.89111	955.23083	-123.18988	-441.35825	1022.6957	-80.16153	-362.01999	731.13318	260.14365	-370.25967	834.80585	334.15808
487	2.425	-521.49756	150.39381	-528.29193	-558.91406	157.32333	-485.811	-376.17307	570.87445	-425.33334	-473.77603	552.38031	-384.21832	-378.17941	1016.6745	-619.91626	-656.93774	1164.505	-429.47427	-368.00333	951.92438	-123.59037	-448.33774	1013.94	-79.49604	-367.7775	713.94275	252.61369	-378.37778	814.77625	329.2912
488	2.43	-521.64783	149.69212	-528.57422	-558.8371	156.90799	-486.59103	-376.72519	570.60193	-425.4906	-475.27606	551.96735	-384.87708	-376.98502	1018.0172	-617.37885	-659.50427	1161.5049	-429.97693	-371.00269	948.83484	-123.78609	-455.15637	1004.8852	-79.059502	-373.91425	696.04004	244.39981	-386.42059	794.3089	323.92029
489	2.435	-521.3811	149.23976	-529.74091	-558.50012	156.12206	-487.60519	-377.28964	570.16895	-425.69766	-476.02209	551.46625	-386.38351	-375.58572	1019.1629	-615.17194	-661.82367	1158.4098	-430.6442	-373.60938	945.75555	-123.8325	-461.93115	995.83881	-78.878113	-382.12735	677.32483	236.33145	-394.71616	773.48962	318.07788
490	2.44	-521.20581	148.51152	-530.61279	-558.80005	155.54807	-488.85999	-377.77924	569.63586	-425.98282	-477.12033	550.71057	-387.48651	-374.28888	1019.9689	-612.96881	-663.93188	1155.1982	-431.36569	-376.68427	942.06354	-123.27855	-468.65692	986.79407	-79.028877	-390.72247	658.92285	227.37352	-403.62866	751.13123	310.19611
491	2.445	-521.14752	147.73927	-531.53906	-558.61273	154.78915	-489.92325	-378.17691	569.06006	-426.30429	-478.05411	550.25201	-388.6626	-373.10172	1020.6348	-610.71332	-665.71625	1151.9397	-432.27475	-379.95288	937.54242	-122.33987	-475.16232	977.61646	-79.511833	-399.18887	640.62964	216.97169	-412.76895	727.96619	302.14813
492	2.45	-520.9527	146.86151	-532.54895	-558.88196	154.15054	-491.33096	-378.36157	568.40979	-426.80127	-478.90451	549.48468	-390.09644	-371.82602	1021.0338	-608.59216	-667.26996	1148.6855	-433.38809	-383.28033	932.0462	-121.51706	-481.27127	968.50562	-80.297318	-409.01752	622.00317	206.32312	-422.61752	704.55737	293.90646
493	2.455	-520.88489	146.0127	-533.53088	-558.61023	153.13908	-492.46924	-378.17487	567.8454	-427.54224	-479.73151	548.50269	-391.61993	-370.64102	1021.2623	-606.48047	-668.78369	1145.3693	-434.54807	-386.64203	925.56311	-120.98663	-486.99341	959.53497	-81.108536	-418.0307	603.49542	193.944	-433.11029	680.8136	284.69357
494	2.46	-520.98608	144.83049	-534.26447	-558.883	152.4416	-493.71704	-378.24332	566.95923	-428.19699	-479.82562	547.42419	-393.28613	-369.36307	1021.4014	-604.44092	-670.18604	1142.1814	-436.01883	-389.99152	918.24512	-120.95558	-492.0087	950.45618	-82.052788	-429.05414	584.29663	181.61118	-444.39694	657.24561	274.45023
495	2.465	-520.76538	144.01587	-535.69843	-558.9906	151.4453	-495.0032	-378.1564	565.96869	-428.95239	-480.29056	546.63312	-394.44907	-368.18048	1021.471	-602.40271	-671.59503	1138.9376	-437.28635	-393.42233	910.20728	-121.38907	-496.44891	941.56018	-82.950645	-440.94012	565.67957	168.73114	-456.60043	634.19806	263.1387
